<?xml version="1.0" standalone="no"?>
<!DOCTYPE svg PUBLIC "-//W3C//DTD SVG 20010904//EN"
 "http://www.w3.org/TR/2001/REC-SVG-20010904/DTD/svg10.dtd">
<svg version="1.0" xmlns="http://www.w3.org/2000/svg"
 width="800.000000pt" height="709.000000pt" viewBox="0 0 800.000000 709.000000"
 preserveAspectRatio="xMidYMid meet">

<g transform="translate(0.000000,709.000000) scale(0.100000,-0.100000)"
fill="#FFFFFF" stroke="none">
<path d="M872 6639 c-179 -30 -359 -167 -441 -335 -65 -133 -61 48 -61 -2589
0 -2663 -6 -2448 67 -2595 51 -103 160 -211 263 -263 148 -73 -151 -67 3351
-65 l3154 3 65 23 c186 67 328 212 393 402 l22 65 3 2403 c3 2666 7 2474 -65
2621 -52 105 -169 222 -273 273 -151 74 118 68 -3327 67 -1746 -1 -3121 -5
-3151 -10z m6265 -499 c68 -41 63 167 63 -2425 0 -2155 -1 -2349 -16 -2375 -9
-15 -29 -35 -44 -44 -26 -15 -276 -16 -3118 -16 l-3091 0 -35 34 -36 33 0
2363 c0 2204 1 2364 17 2391 38 63 -224 59 3153 59 3032 0 3075 0 3107 -20z"/>
<path d="M1925 5656 c-221 -51 -404 -194 -500 -390 -61 -123 -78 -198 -78
-326 0 -281 145 -520 395 -650 301 -157 679 -81 896 180 135 163 194 382 158
588 -29 165 -98 294 -220 410 -138 131 -284 192 -476 198 -75 2 -136 -1 -175
-10z"/>
<path d="M4150 4085 l-975 -975 -300 300 c-165 165 -305 300 -310 300 -6 0
-283 -273 -618 -608 l-607 -607 2 -365 3 -365 2683 -3 2682 -2 0 858 0 857
-793 793 -792 792 -975 -975z"/>
</g>
</svg>
